<svg width="73" height="23" viewBox="0 0 73 23" fill="none" xmlns="http://www.w3.org/2000/svg">
<g filter="url(#filter0_d_1_2538)">
<path d="M8.40001 12.92V2.00002H5.20001V16H13.4V12.92H8.40001Z" fill="#0B0D17"/>
<path d="M21.8717 6.00002V6.94002C21.2117 6.18002 20.2317 5.72002 18.8917 5.72002C16.2717 5.72002 14.1117 8.02002 14.1117 11C14.1117 13.98 16.2717 16.28 18.8917 16.28C20.2317 16.28 21.2117 15.82 21.8717 15.06V16H24.8717V6.00002H21.8717ZM19.4917 13.44C18.1117 13.44 17.1117 12.5 17.1117 11C17.1117 9.50002 18.1117 8.56002 19.4917 8.56002C20.8717 8.56002 21.8717 9.50002 21.8717 11C21.8717 12.5 20.8717 13.44 19.4917 13.44Z" fill="#0B0D17"/>
<path d="M32.9327 5.72002C31.6127 5.72002 30.6127 6.20002 30.0727 6.94002V6.00002H27.0727V16H30.0727V10.54C30.0727 9.12002 30.8327 8.48002 31.9327 8.48002C32.8927 8.48002 33.6727 9.06002 33.6727 10.3V16H36.6727V9.86002C36.6727 7.16002 34.9527 5.72002 32.9327 5.72002Z" fill="#0B0D17"/>
<path d="M45.9928 2.00002V6.94002C45.3328 6.18002 44.3528 5.72002 43.0128 5.72002C40.3928 5.72002 38.2328 8.02002 38.2328 11C38.2328 13.98 40.3928 16.28 43.0128 16.28C44.3528 16.28 45.3328 15.82 45.9928 15.06V16H48.9928V2.00002H45.9928ZM43.6128 13.44C42.2328 13.44 41.2328 12.5 41.2328 11C41.2328 9.50002 42.2328 8.56002 43.6128 8.56002C44.9928 8.56002 45.9928 9.50002 45.9928 11C45.9928 12.5 44.9928 13.44 43.6128 13.44Z" fill="#0B0D17"/>
<path d="M52.6938 5.12002C53.6738 5.12002 54.4938 4.30002 54.4938 3.32002C54.4938 2.34002 53.6738 1.52002 52.6938 1.52002C51.7138 1.52002 50.8938 2.34002 50.8938 3.32002C50.8938 4.30002 51.7138 5.12002 52.6938 5.12002ZM51.1938 16H54.1938V6.00002H51.1938V16Z" fill="#0B0D17"/>
<path d="M61.8891 4.60002V1.72002C58.5691 1.52002 57.0291 3.20002 57.0291 6.00002H55.6891V8.88002H57.0291V16H60.0291V8.88002H61.8891V6.00002H60.0291C60.0291 4.84002 60.7691 4.50002 61.8891 4.60002Z" fill="#0B0D17"/>
<path d="M69.6813 6.00002L67.8013 12.12L65.5813 6.00002H62.2813L66.2613 15.54C65.8213 16.76 65.1613 17.2 63.7613 17.2V20C66.5613 20.14 68.3413 18.88 69.4613 15.7L72.8813 6.00002H69.6813Z" fill="#0B0D17"/>
<path d="M8.90001 12.42V2.00002V1.50002H8.40001H5.20001H4.70001V2.00002V16V16.5H5.20001H13.4H13.9V16V12.92V12.9037C14.612 15.1701 16.5657 16.78 18.8917 16.78C19.8724 16.78 20.7009 16.5521 21.3717 16.1363V16.5H21.8717H24.8717H25.3717V16V6.00002V5.50002H24.8717H21.8717H21.3717V5.86377C20.7009 5.44794 19.8724 5.22002 18.8917 5.22002C15.955 5.22002 13.6117 7.78631 13.6117 11C13.6117 11.4907 13.6664 11.9663 13.7694 12.42H13.4H8.90001ZM30.5727 5.82202V5.50002H30.0727H27.0727H26.5727V6.00002V16V16.5H27.0727H30.0727H30.5727V16V10.54C30.5727 9.91621 30.7385 9.5426 30.949 9.32572C31.158 9.11029 31.4785 8.98002 31.9327 8.98002C32.3144 8.98002 32.6155 9.09443 32.8178 9.28709C33.0151 9.47494 33.1727 9.78874 33.1727 10.3V16V16.5H33.6727H36.6727H37.1727V16V9.86002C37.1727 8.40078 36.7055 7.23307 35.9175 6.42783C35.1314 5.62438 34.0628 5.22002 32.9327 5.22002C32.0165 5.22002 31.2084 5.43356 30.5727 5.82202ZM45.9928 1.50002H45.4928V2.00002V5.86377C44.822 5.44794 43.9935 5.22002 43.0128 5.22002C40.0761 5.22002 37.7328 7.78631 37.7328 11C37.7328 14.2137 40.0761 16.78 43.0128 16.78C43.9935 16.78 44.822 16.5521 45.4928 16.1363V16.5H45.9928H48.9928H49.4928V16V2.00002V1.50002H48.9928H45.9928ZM50.6938 16V16.5H51.1938H54.1938H54.6938V16V6.00002V5.50002H54.1938H53.4194C54.3277 5.19137 54.9938 4.32343 54.9938 3.32002C54.9938 2.06388 53.9499 1.02002 52.6938 1.02002C51.4376 1.02002 50.3938 2.06388 50.3938 3.32002C50.3938 4.32342 51.0598 5.19137 51.9681 5.50002H51.1938H50.6938V6.00002V16ZM61.8446 5.09804L62.3891 5.14665V4.60002V1.72002V1.24923L61.9191 1.22092C60.1763 1.11593 58.8071 1.49957 57.8733 2.36911C57.0456 3.13996 56.6294 4.22804 56.5452 5.50002H55.6891H55.1891V6.00002V8.88002V9.38002H55.6891H56.5291V16V16.5H57.0291H60.0291H60.5291V16V9.38002H61.8891H62.3891V8.88002V7.55705L65.7227 15.5477C65.5395 15.9931 65.3356 16.2509 65.0945 16.4111C64.8174 16.5953 64.4172 16.7 63.7613 16.7H63.2613V17.2V20V20.4756L63.7363 20.4994C65.2193 20.5735 66.4881 20.2779 67.5395 19.4963C68.5829 18.7208 69.3539 17.5098 69.9328 15.8663C69.9328 15.8662 69.9329 15.8662 69.9329 15.8661L73.3528 6.16628L73.5877 5.50002H72.8813H69.6813H69.3118L69.2033 5.8532L67.7619 10.5453L66.0513 5.82952L65.9318 5.50002H65.5813H62.3891H62.2813H61.8891H61.5309H60.6107C60.6652 5.37114 60.7406 5.2943 60.8172 5.24305C60.9997 5.12087 61.3241 5.05157 61.8446 5.09804ZM19.4917 12.94C18.9174 12.94 18.4552 12.7463 18.1378 12.429C17.8213 12.1125 17.6117 11.6358 17.6117 11C17.6117 10.3643 17.8213 9.88759 18.1378 9.57107C18.4552 9.25371 18.9174 9.06002 19.4917 9.06002C20.0661 9.06002 20.5283 9.25371 20.8457 9.57107C21.1622 9.88759 21.3717 10.3643 21.3717 11C21.3717 11.6358 21.1622 12.1125 20.8457 12.429C20.5283 12.7463 20.0661 12.94 19.4917 12.94ZM43.6128 12.94C43.0384 12.94 42.5762 12.7463 42.2589 12.429C41.9424 12.1125 41.7328 11.6358 41.7328 11C41.7328 10.3643 41.9424 9.88759 42.2589 9.57107C42.5762 9.25371 43.0384 9.06002 43.6128 9.06002C44.1872 9.06002 44.6494 9.25371 44.9668 9.57107C45.2833 9.88759 45.4928 10.3643 45.4928 11C45.4928 11.6358 45.2833 12.1125 44.9668 12.429C44.6494 12.7463 44.1872 12.94 43.6128 12.94Z" stroke="black"/>
</g>
<defs>
<filter id="filter0_d_1_2538" x="0.200012" y="0.52002" width="78.0942" height="28.4905" filterUnits="userSpaceOnUse" color-interpolation-filters="sRGB">
<feFlood flood-opacity="0" result="BackgroundImageFix"/>
<feColorMatrix in="SourceAlpha" type="matrix" values="0 0 0 0 0 0 0 0 0 0 0 0 0 0 0 0 0 0 127 0" result="hardAlpha"/>
<feOffset dy="4"/>
<feGaussianBlur stdDeviation="2"/>
<feComposite in2="hardAlpha" operator="out"/>
<feColorMatrix type="matrix" values="0 0 0 0 0 0 0 0 0 0 0 0 0 0 0 0 0 0 0.25 0"/>
<feBlend mode="normal" in2="BackgroundImageFix" result="effect1_dropShadow_1_2538"/>
<feBlend mode="normal" in="SourceGraphic" in2="effect1_dropShadow_1_2538" result="shape"/>
</filter>
</defs>
</svg>
